# xmcd
#
# Track frame offsets: 
#        150
#        12297
#        22200
#        36330
#        46967
#        58460
#        69002
#        79292
#        90262
#        102252
#        112827
#        124330
#        135812
#        145967
#        156845
#        166850
#        178110
#        187747
#        199712
#        210547
#        223727
#        237540
#        250710
#        261405
#        269970
#
# Disc length: 3779 seconds
#
# Revision: 7
# Processed by: cddbd v1.5.2PL0 Copyright (c) Steve Scherf et al.
# Submitted via: ExactAudioCopy v0.99pb4
#
DISCID=6b0ec119
DTITLE=Junior Wells - Universal Rock
DYEAR=1900
DGENRE=Blues
TTITLE0=Two-Headed Woman
TTITLE1=Lovery Dovey Lovely One
TTITLE2=I Could Cry
TTITLE3=Cha Cha Cha In Blue
TTITLE4=Little By Little
TTITLE5=Come On In This House
TTITLE6=Yuo Don't Care
TTITLE7=Prison Bars All Around Me
TTITLE8=I'm A Stranger
TTITLE9=The Things I'd Do For You
TTITLE10=Galloping Horses A Lazy Mule
TTITLE11=Calling All Blues
TTITLE12=Messin' With The Kid
TTITLE13=You Sure Look Good To Me
TTITLE14=So Tired
TTITLE15=Universal Rock
TTITLE16=Love Me
TTITLE17=It Hurts Me Too
TTITLE18=I Need Me A Car
TTITLE19=I Could Cry
TTITLE20=I'll Get You Too
TTITLE21=One Day (Every Goodbye Ain't Gone)
TTITLE22=When The Cat's Gone The Mice Play - Take 3
TTITLE23=When The Cat's Gone The Mice Play - Take 4
TTITLE24=She's A Sweet One
EXTD=
EXTT0=
EXTT1=
EXTT2=
EXTT3=
EXTT4=
EXTT5=
EXTT6=
EXTT7=
EXTT8=
EXTT9=
EXTT10=
EXTT11=
EXTT12=
EXTT13=
EXTT14=
EXTT15=
EXTT16=
EXTT17=
EXTT18=
EXTT19=
EXTT20=
EXTT21=
EXTT22=
EXTT23=
EXTT24=
PLAYORDER=
